<svg xmlns="http://www.w3.org/2000/svg" class="svg-icon" viewBox="0 0 20 20">
							<path fill="none" d="M 10 4.784 C 7.12 4.784 4.784 7.12 4.784 10 c 0 2.881 2.335 5.216 5.216 5.216 c 2.881 0 5.216 -2.335 5.216 -5.216 C 15.216 7.12 12.881 4.784 10 4.784 M 10 5.653 c 1.034 0 1.983 0.362 2.729 0.966 c -0.705 0.566 -1.475 1.056 -2.303 1.442 C 9.94 7.257 9.356 6.52 8.702 5.852 C 9.111 5.723 9.548 5.653 10 5.653 M 7.837 6.233 c 0.672 0.649 1.271 1.375 1.767 2.173 c -1.205 0.451 -2.503 0.709 -3.863 0.72 C 5.994 7.888 6.775 6.844 7.837 6.233 M 5.653 10 c 1.549 0 3.03 -0.292 4.392 -0.821 c 0.146 0.282 0.283 0.568 0.405 0.863 c -1.5 0.563 -2.761 1.603 -3.616 2.93 C 6.104 12.194 5.653 11.151 5.653 10 M 10 14.347 c -0.934 0 -1.796 -0.298 -2.504 -0.798 c 0.753 -1.221 1.892 -2.179 3.253 -2.691 c 0.338 1.04 0.527 2.145 0.547 3.292 C 10.887 14.277 10.452 14.347 10 14.347 M 12.147 13.776 c -0.051 -1.102 -0.238 -2.166 -0.562 -3.172 c 0.47 -0.107 0.956 -0.169 1.458 -0.169 c 0.434 0 0.852 0.059 1.261 0.141 C 14.122 11.949 13.302 13.118 12.147 13.776 M 13.043 9.565 c -0.606 0 -1.193 0.082 -1.757 0.22 c -0.131 -0.324 -0.276 -0.64 -0.434 -0.95 c 0.903 -0.427 1.74 -0.969 2.505 -1.595 c 0.558 0.677 0.909 1.527 0.974 2.456 C 13.912 9.62 13.485 9.565 13.043 9.565 M 10 0.438 c -5.281 0 -9.562 4.281 -9.562 9.562 S 4.719 19.562 10 19.562 c 5.281 0 9.562 -4.281 9.562 -9.562 S 15.281 0.438 10 0.438 M 10 18.693 c -4.801 0 -8.693 -3.892 -8.693 -8.693 c 0 -4.801 3.892 -8.693 8.693 -8.693 c 4.802 0 8.693 3.892 8.693 8.693 C 18.693 14.802 14.802 18.693 10 18.693"/>
						</svg>