<?xml version="1.0" encoding="iso-8859-1"?>
<!-- Generator: Adobe Illustrator 19.0.0, SVG Export Plug-In . SVG Version: 6.00 Build 0)  -->
<svg version="1.1" id="Capa_1" xmlns="http://www.w3.org/2000/svg" xmlns:xlink="http://www.w3.org/1999/xlink" x="0px" y="0px"
	 viewBox="0 0 290.141 290.141" style="enable-background:new 0 0 290.141 290.141;" xml:space="preserve">
<path id="XMLID_12_" d="M100.297,0v173.505c-6.239-2.564-13.111-3.921-20.305-3.921c-17.458,0-35.266,7.796-48.857,21.388
	c-25.344,25.343-28.516,63.407-7.072,84.852c9.232,9.232,22.016,14.316,35.995,14.316c17.458,0,35.266-7.796,48.857-21.388
	c11.843-11.843,19.308-26.842,21.018-42.234c0.244-2.198,0.355-4.379,0.354-6.537h0.01V90h120v83.505
	c-6.239-2.564-13.111-3.921-20.305-3.921c-17.458,0-35.266,7.796-48.857,21.388c-25.344,25.343-28.516,63.407-7.072,84.852
	c9.232,9.232,22.016,14.316,35.995,14.316c17.458,0,35.266-7.796,48.857-21.388c11.843-11.843,19.308-26.842,21.017-42.234
	c0.244-2.198,0.355-4.379,0.354-6.537h0.01V0H100.297z M250.297,60h-120V30h120V60z"/>
<g>
</g>
<g>
</g>
<g>
</g>
<g>
</g>
<g>
</g>
<g>
</g>
<g>
</g>
<g>
</g>
<g>
</g>
<g>
</g>
<g>
</g>
<g>
</g>
<g>
</g>
<g>
</g>
<g>
</g>
</svg>
